name C:\Users\u0150099\Documents\master_thesis\3dpredictsim\Results\CP\CP3_T0_scaled_sf_v2_right_MTPp_k25_d03_ig21_v3.mot
datacolumns 126
datarows 4
range 0.00000000 0.03330970
endheader
time	pelvis_tilt	pelvis_list	pelvis_rotation	pelvis_tx	pelvis_ty	pelvis_tz	hip_flexion_l	hip_adduction_l	hip_rotation_l	hip_flexion_r	hip_adduction_r	hip_rotation_r	knee_angle_l	knee_angle_r	ankle_angle_l	ankle_angle_r	subtalar_angle_l	subtalar_angle_r	mtj_angle_l	mtj_angle_r	mtp_angle_l	mtp_angle_r	lumbar_extension	lumbar_bending	lumbar_rotation	arm_flex_l	arm_add_l	arm_rot_l	arm_flex_r	arm_add_r	arm_rot_r	elbow_flex_l	elbow_flex_r	glut_med1_l/activation	glut_med2_l/activation	glut_med3_l/activation	glut_min1_l/activation	glut_min2_l/activation	glut_min3_l/activation	semimem_l/activation	semiten_l/activation	bifemlh_l/activation	bifemsh_l/activation	sar_l/activation	add_long_l/activation	add_brev_l/activation	add_mag1_l/activation	add_mag2_l/activation	add_mag3_l/activation	tfl_l/activation	pect_l/activation	grac_l/activation	glut_max1_l/activation	glut_max2_l/activation	glut_max3_l/activation	iliacus_l/activation	psoas_l/activation	quad_fem_l/activation	gem_l/activation	peri_l/activation	rect_fem_l/activation	vas_med_l/activation	vas_int_l/activation	vas_lat_l/activation	med_gas_l/activation	lat_gas_l/activation	soleus_l/activation	tib_post_l/activation	flex_dig_l/activation	flex_hal_l/activation	tib_ant_l/activation	per_brev_l/activation	per_long_l/activation	per_tert_l/activation	ext_dig_l/activation	ext_hal_l/activation	ercspn_l/activation	intobl_l/activation	extobl_l/activation	glut_med1_r/activation	glut_med2_r/activation	glut_med3_r/activation	glut_min1_r/activation	glut_min2_r/activation	glut_min3_r/activation	semimem_r/activation	semiten_r/activation	bifemlh_r/activation	bifemsh_r/activation	sar_r/activation	add_long_r/activation	add_brev_r/activation	add_mag1_r/activation	add_mag2_r/activation	add_mag3_r/activation	tfl_r/activation	pect_r/activation	grac_r/activation	glut_max1_r/activation	glut_max2_r/activation	glut_max3_r/activation	iliacus_r/activation	psoas_r/activation	quad_fem_r/activation	gem_r/activation	peri_r/activation	rect_fem_r/activation	vas_med_r/activation	vas_int_r/activation	vas_lat_r/activation	med_gas_r/activation	lat_gas_r/activation	soleus_r/activation	tib_post_r/activation	flex_dig_r/activation	flex_hal_r/activation	tib_ant_r/activation	per_brev_r/activation	per_long_r/activation	per_tert_r/activation	ext_dig_r/activation	ext_hal_r/activation	ercspn_r/activation	intobl_r/activation	extobl_r/activation	
          0.00000000	         -2.93017651	         -1.59782442	          5.26025611	          0.00000000	          0.85614526	         -0.00181418	        -15.03569650	         -0.82269594	          4.40898440	         26.10667090	          2.74182910	          0.34488746	        -22.53291920	         -9.04225349	         -3.37885957	         13.29050458	          6.45979928	         -4.31462722	         20.07620891	          0.27827840	          3.39029696	         -1.25429441	         -1.29394843	         -2.31554926	        -13.66674753	         16.81159742	        -23.79316204	        -15.90942708	         16.37655962	         42.03666761	         38.11661751	         86.51662706	         86.51662706	          0.13258188	          0.05272816	          0.05232191	          0.11920990	          0.07257530	          0.05925257	          0.05000052	          0.05000014	          0.05000024	          0.05000044	          0.08321236	          0.24300772	          0.08257164	          0.05925242	          0.05000080	          0.05000025	          0.13303798	          0.09861011	          0.05925303	          0.05000093	          0.05000044	          0.05000027	          0.47399715	          0.50551580	          0.05925271	          0.05925258	          0.05000042	          0.19449096	          0.07978251	          0.10845559	          0.11437442	          0.16980370	          0.25211521	          0.20292395	          0.34307515	          0.21076806	          0.23809041	          0.05003709	          0.05000000	          0.05000000	          0.05000003	          0.12041302	          0.05000013	          0.06209307	          0.07271137	          0.08321169	          0.05000000	          0.05000001	          0.06189630	          0.05000002	          0.05000002	          0.05000002	          0.20925193	          0.11378239	          0.19598650	          0.05187839	          0.07021917	          0.08321169	          0.21033336	          0.26243939	          0.19112632	          0.22014368	          0.05000005	          0.07022998	          0.11305544	          0.05000007	          0.08739330	          0.24831741	          0.07021762	          0.06900178	          0.36280855	          0.09668450	          0.05925058	          0.05925271	          0.05717721	          0.05925104	          0.05925203	          0.06105449	          0.06478446	          0.06797697	          0.05890986	          0.05000013	          0.05456097	          0.57434620	          0.16499869	          0.26059841	          0.13168176	          0.60821925	          0.25144773	          0.05000000	          0.09861036	          0.11419082	
          0.01110323	         -2.92853615	         -1.52653272	          5.46646665	          0.01788302	          0.85455366	         -0.00168520	        -15.00467034	         -1.02346319	          4.09374913	         25.36242475	          2.84483011	          0.61817291	        -24.28588553	         -9.86904352	         -3.95546694	         12.78221070	          7.19341307	         -4.56248972	         17.30842930	          0.26988730	          3.48627191	         -1.06644828	         -1.33936632	         -2.59786618	        -13.68286482	         16.86855510	        -24.12750015	        -15.73359129	         16.69948684	         42.30362475	         37.04463094	         86.51662706	         86.51662706	          0.35570158	          0.05000002	          0.05000001	          0.22003717	          0.06124229	          0.05000010	          0.05000043	          0.05000002	          0.05000002	          0.05000010	          0.07021823	          0.20506054	          0.10245027	          0.05000007	          0.05000019	          0.05000013	          0.11226325	          0.08321159	          0.05000040	          0.05000025	          0.05000013	          0.05000006	          0.39997942	          0.42657624	          0.05000004	          0.05000008	          0.05000003	          0.16411993	          0.08205124	          0.09151962	          0.09651413	          0.14328775	          0.21274578	          0.17123605	          0.28950173	          0.17785527	          0.20091105	          0.09954079	          0.13170941	          0.09901714	          0.05000010	          0.23971542	          0.05000009	          0.08647618	          0.06135701	          0.07021765	          0.32001867	          0.29317463	          0.31090540	          0.34221320	          0.19627882	          0.30032656	          0.17775872	          0.09601465	          0.16850668	          0.06004023	          0.05925401	          0.07021766	          0.17748845	          0.22145780	          0.16128077	          0.20635937	          0.05000026	          0.05926317	          0.09540139	          0.16169044	          0.15438744	          0.20954113	          0.05925270	          0.05925267	          0.30615363	          0.08158663	          0.11748544	          0.05000004	          0.05000011	          0.05000016	          0.05000014	          0.05152043	          0.05466795	          0.05736192	          0.05000000	          0.05000009	          0.05000006	          0.72269437	          0.32323002	          0.21990428	          0.47762883	          0.76192916	          0.42947236	          0.07989335	          0.08321172	          0.09635918	
          0.02220647	         -2.92654391	         -1.46033228	          5.63802493	          0.03572332	          0.85310060	         -0.00152911	        -14.90457651	         -1.23629610	          3.79751297	         24.62411764	          2.93021448	          0.88122778	        -26.07345197	        -10.65534905	         -4.57916712	         12.05807469	          7.90332860	         -4.79514905	         14.07262537	          0.26940173	          3.57179207	         -0.86034593	         -1.38026950	         -2.85058856	        -13.68294404	         16.96798919	        -24.33257006	        -15.50692565	         17.00936045	         42.35311645	         35.75231860	         86.51662706	         86.51662706	          0.30015648	          0.05000004	          0.05000001	          0.18567697	          0.05167897	          0.05000007	          0.05000045	          0.05000005	          0.05000012	          0.05000001	          0.05925321	          0.17303903	          0.12561970	          0.22043253	          0.09131342	          0.13161363	          0.09473262	          0.07021759	          0.05000006	          0.05000091	          0.05000093	          0.05000591	          0.33752003	          0.35996358	          0.05000003	          0.05000010	          0.05000003	          0.13849153	          0.07022634	          0.07722828	          0.08144283	          0.12091244	          0.17952415	          0.14449643	          0.24429415	          0.15008203	          0.16953749	          0.18195381	          0.11114241	          0.09086467	          0.05323034	          0.31599028	          0.05000515	          0.12201474	          0.05177572	          0.05925271	          0.39785533	          0.42169236	          0.38446746	          0.28877628	          0.31615850	          0.25342952	          0.15000056	          0.10728653	          0.14219331	          0.05925265	          0.05000113	          0.05925272	          0.14977249	          0.18687579	          0.17051675	          0.22750653	          0.05000012	          0.05000887	          0.08050716	          0.28368107	          0.23738497	          0.25108139	          0.05000002	          0.05000001	          0.25834576	          0.06884640	          0.09913937	          0.05000001	          0.06288760	          0.12752370	          0.12475095	          0.05000000	          0.05000000	          0.05000000	          0.05000002	          0.05000007	          0.05000006	          0.83668094	          0.33428278	          0.23289962	          0.65551887	          0.79007535	          0.46506588	          0.11045125	          0.07021767	          0.08131207	
          0.03330970	         -2.92493931	         -1.39527365	          5.77556221	          0.05330672	          0.85206159	         -0.00135176	        -14.69254763	         -1.45133692	          3.52281667	         23.97751989	          3.03150501	          1.13558836	        -27.90859544	        -11.54295968	         -5.31368475	         11.20717607	          8.59677054	         -5.00899109	         10.40150812	          0.25908994	          3.63936285	         -0.63788914	         -1.41731892	         -3.02730765	        -13.66224267	         17.16710168	        -24.38713879	        -15.23419606	         17.29083884	         42.12355926	         34.28696788	         86.51662706	         86.51662706	          0.25328510	          0.05000004	          0.05000001	          0.15668233	          0.05000024	          0.05000008	          0.05000051	          0.13686265	          0.14773266	          0.05000001	          0.05000046	          0.14601788	          0.27248182	          0.18602290	          0.11657271	          0.16411061	          0.07993952	          0.05925270	          0.05000004	          0.05000058	          0.05000066	          0.07411726	          0.28481408	          0.30375293	          0.05000001	          0.05000008	          0.05000003	          0.11686518	          0.05926004	          0.06516858	          0.06872500	          0.10203118	          0.15149031	          0.12193237	          0.20614603	          0.12664576	          0.14306312	          0.24330529	          0.09378686	          0.10260423	          0.10934616	          0.38350334	          0.13598903	          0.15610946	          0.05188570	          0.05000002	          0.47578818	          0.46164367	          0.38445857	          0.24368210	          0.26678847	          0.23334037	          0.13134006	          0.11310433	          0.12777272	          0.05000012	          0.05000007	          0.05000006	          0.12638458	          0.16072529	          0.19746916	          0.23848850	          0.05000010	          0.05000014	          0.06794171	          0.31338379	          0.26934318	          0.27386355	          0.05000001	          0.05000002	          0.21800339	          0.05809567	          0.08365816	          0.05000001	          0.18834505	          0.22014551	          0.20265154	          0.05000000	          0.05000001	          0.05000000	          0.05000002	          0.05000005	          0.05000005	          0.89245721	          0.33347533	          0.21787486	          0.59599885	          0.85412458	          0.47255226	          0.12413399	          0.05925272	          0.06861466	
